<svg width="102" height="25" viewBox="0 0 102 25" fill="none" xmlns="http://www.w3.org/2000/svg">
<path d="M9.97288 24.9903C3.76838 24.9903 0 21.4152 0 15.6809C0 10.0527 3.9587 6.37145 10.1632 6.37145C15.4922 6.37145 18.8038 9.06162 19.5651 13.3801H13.9697C13.5129 11.5748 12.1806 10.4421 10.0871 10.4421C7.27031 10.4421 5.48128 12.6013 5.48128 15.6809C5.48128 18.7958 7.27031 20.9196 10.0871 20.9196C12.1806 20.9196 13.589 19.7515 13.9697 17.9109H19.6032C18.8419 22.2647 15.3019 24.9903 9.97288 24.9903Z" fill="white"/>
<path d="M53.0143 24.9463V0H58.3814V24.9463H53.0143Z" fill="white"/>
<path d="M92.9407 6.37145C98.1936 6.37145 102 9.87575 102 15.6455C102 21.2736 98.1936 24.9903 92.9026 24.9903C90.0858 24.9903 88.1446 23.8576 86.8884 22.3001V24.9903H81.6736V0H87.0407V8.88464C88.3349 7.43336 90.2381 6.37145 92.9407 6.37145ZM91.7226 20.9196C94.6536 20.9196 96.5568 18.7958 96.5568 15.6809C96.5568 12.5659 94.6536 10.4421 91.7226 10.4421C88.7916 10.4421 86.9645 12.5659 86.9645 15.6455C86.9645 18.7604 88.7916 20.9196 91.7226 20.9196Z" fill="white"/>
<path d="M49.7743 6.52709H44.6597V11.5764H49.7743V6.52709Z" fill="white"/>
<path d="M49.7743 19.9507H44.6597V25H49.7743V19.9507Z" fill="white"/>
<path d="M79.6311 20.5657V24.901H77.4995C74.7208 24.901 73.8453 23.539 73.8834 21.8045C72.5131 23.8222 70.5337 24.9903 67.4886 24.9903C63.2634 24.9903 60.2183 23.1142 60.2183 19.6453C60.2183 15.7871 63.3396 13.5925 69.2015 13.5925H73.0841V12.7075C73.0841 11.0793 71.8279 10.0174 69.5821 10.0174C67.4886 10.0174 66.0802 10.9023 65.8518 12.2474H60.675C61.0557 8.70767 64.5576 6.37147 69.7344 6.37147C75.2157 6.37147 78.375 8.63687 78.375 12.9907V19.4329C78.375 20.3887 78.7937 20.5657 79.6311 20.5657ZM73.0841 17.2737V16.9198H69.1634C66.9176 16.9198 65.6234 17.7693 65.6234 19.2914C65.6234 20.5656 66.7273 21.3798 68.5163 21.3798C71.3331 21.3798 73.046 19.7515 73.0841 17.2737Z" fill="white"/>
<path d="M31.7182 25C25.4724 25 21.3974 21.2814 21.3974 15.6857C21.3974 10.0901 25.4724 6.37147 31.7182 6.37147C37.964 6.37147 42.0391 10.0901 42.0391 15.6857C42.0391 21.3168 37.964 25 31.7182 25ZM31.7182 20.9272C34.7269 20.9272 36.593 18.7669 36.593 15.6857C36.593 12.6046 34.7269 10.4442 31.7182 10.4442C28.7096 10.4442 26.8815 12.6046 26.8815 15.6857C26.8815 18.7669 28.7096 20.9272 31.7182 20.9272Z" fill="white"/>
</svg>
