<svg width="259" height="87" viewBox="0 0 259 87" fill="none" xmlns="http://www.w3.org/2000/svg">
<path d="M15.2524 79.4587L23.7562 63.2354H30.2627L18.7629 85.7593H11.6511L0 63.2354H6.96042L15.2524 79.4587Z" fill="white"/>
<path d="M38.1809 85.7593H31.9165V63.2354H38.1809V85.7593Z" fill="white"/>
<path d="M52.5173 73.5538L65.6513 85.7593H57.5107L47.3424 75.9279V85.7593H41.078V63.2354H47.3424V71.4231L56.9659 63.2354H65.1974L52.5173 73.5538Z" fill="white"/>
<path d="M72.9652 85.7593H66.7008V63.2354H72.9652V85.7593Z" fill="white"/>
<path d="M82.1267 85.7593H75.8624V63.2354L82.1267 85.7593ZM97.1068 78.1194V63.2354H103.401V85.7593H97.1068L82.1267 70.8448V85.7593H75.8624V63.2354H82.1267L97.1068 78.1194Z" fill="white"/>
<path d="M134.145 85.7593H130.18L129.575 83.6287C128.324 84.5012 126.902 85.181 125.308 85.668C123.714 86.1347 121.999 86.3681 120.163 86.3681C117.46 86.3681 114.999 85.8506 112.779 84.8157C110.58 83.7808 108.845 82.3604 107.574 80.5544C106.303 78.7485 105.668 76.7396 105.668 74.5278C105.668 72.2754 106.303 70.2462 107.574 68.4402C108.865 66.6343 110.621 65.224 112.84 64.2094C115.059 63.1948 117.5 62.6875 120.163 62.6875C122.403 62.6875 124.481 63.0325 126.397 63.7224C128.334 64.392 129.968 65.3965 131.3 66.7357C132.632 68.0547 133.519 69.6679 133.963 71.5753H127.396C126.892 70.2361 125.954 69.2519 124.582 68.6229C123.23 67.9938 121.767 67.6793 120.194 67.6793C118.761 67.6793 117.45 67.9634 116.259 68.5315C115.089 69.0794 114.161 69.8708 113.475 70.9057C112.81 71.9406 112.477 73.1479 112.477 74.5278C112.477 75.9482 112.82 77.1759 113.506 78.2107C114.212 79.2456 115.15 80.037 116.32 80.5849C117.51 81.1125 118.802 81.3763 120.194 81.3763C121.626 81.3763 122.968 81.082 124.219 80.4936C125.469 79.9051 126.438 79.0326 127.124 77.8759H120.345V74.1625H134.084V76.6584L134.145 85.7593Z" fill="white"/>
<path d="M174.16 85.7593H170.196L169.59 83.6287C168.34 84.5012 166.917 85.181 165.323 85.668C163.729 86.1347 162.015 86.3681 160.179 86.3681C157.475 86.3681 155.014 85.8506 152.795 84.8157C150.595 83.7808 148.86 82.3604 147.589 80.5544C146.318 78.7485 145.683 76.7396 145.683 74.5278C145.683 72.2754 146.318 70.2462 147.589 68.4402C148.881 66.6343 150.636 65.224 152.855 64.2094C155.074 63.1948 157.516 62.6875 160.179 62.6875C162.418 62.6875 164.496 63.0325 166.413 63.7224C168.35 64.392 169.984 65.3965 171.315 66.7357C172.647 68.0547 173.535 69.6679 173.978 71.5753H167.411C166.907 70.2361 165.969 69.2519 164.597 68.6229C163.245 67.9938 161.783 67.6793 160.209 67.6793C158.777 67.6793 157.465 67.9634 156.275 68.5315C155.105 69.0794 154.177 69.8708 153.491 70.9057C152.825 71.9406 152.492 73.1479 152.492 74.5278C152.492 75.9482 152.835 77.1759 153.521 78.2107C154.227 79.2456 155.165 80.037 156.335 80.5849C157.526 81.1125 158.817 81.3763 160.209 81.3763C161.641 81.3763 162.983 81.082 164.234 80.4936C165.485 79.9051 166.453 79.0326 167.139 77.8759H160.36V74.1625H174.1V76.6584L174.16 85.7593Z" fill="white"/>
<path d="M197.374 76.5671H182.726V81.0719L199.916 80.9501V85.7593H176.462V63.2354H199.916L199.946 68.0141H182.726V71.8493H197.374V76.5671Z" fill="white"/>
<path d="M231.493 85.7593H225.047L222.717 81.4371H209.311L206.98 85.7593H200.534L212.7 63.2354H219.358L231.493 85.7593ZM216.029 68.9881L211.792 76.8106H220.235L216.029 68.9881Z" fill="white"/>
<path d="M251.136 85.7289L244.932 78.4542H238.607V85.7289H232.554V63.2049H248.927C250.803 63.2049 252.457 63.5195 253.89 64.1485C255.342 64.7776 256.462 65.6603 257.249 66.7966C258.056 67.9126 258.459 69.2113 258.459 70.6926V70.8144C258.459 72.7421 257.894 74.335 256.765 75.5931C255.655 76.8512 254.112 77.6933 252.134 78.1194L258.641 85.7289H251.136ZM252.377 70.8752C252.377 69.9012 252.185 69.191 251.802 68.7446C251.418 68.2982 250.924 68.0242 250.319 67.9228C249.713 67.8213 248.856 67.7706 247.746 67.7706C247.262 67.7706 246.849 67.7807 246.506 67.801C244.851 67.8416 242.218 67.8619 238.607 67.8619V73.7973H247.746C248.856 73.7973 249.713 73.7567 250.319 73.6755C250.924 73.5741 251.418 73.3103 251.802 72.8841C252.185 72.458 252.377 71.7884 252.377 70.8752Z" fill="white"/>
<path d="M123.873 11.6553C124.821 10.8467 125.761 10.0064 126.248 8.83725C126.605 7.97933 126.803 7.0532 127.052 6.15215C127.231 5.50705 127.501 4.92477 128.031 4.44654C128.071 5.00886 128.108 5.53568 128.145 6.06249C128.195 6.06616 128.245 6.06983 128.296 6.0735C128.544 5.71839 128.793 5.36327 129.086 4.94567C129.142 5.62608 129.192 6.24885 129.243 6.87162C129.287 6.87067 129.332 6.86972 129.376 6.86877C129.449 6.23365 129.522 5.59853 129.605 4.87406C129.981 5.36457 130.306 5.78793 130.631 6.21128C130.663 6.20501 130.695 6.19874 130.727 6.19247C130.693 5.6486 130.658 5.10473 130.619 4.47526C131.062 4.82203 131.344 5.1952 131.494 5.65153C131.662 6.16086 131.835 6.67558 131.926 7.20172C132.223 8.92439 133.184 10.2268 134.46 11.3431C134.571 11.4407 134.678 11.5436 134.88 11.7292C134.766 11.3399 134.679 11.0448 134.585 10.7266C134.693 10.7266 134.795 10.7163 134.895 10.7281C138.447 11.1464 141.904 10.6952 145.282 9.57619C146.849 9.0572 148.406 8.50723 149.955 7.93696C151.421 7.39738 152.933 7.33712 154.471 7.33316C156.509 7.32792 158.554 7.32042 160.583 7.15529C163.532 6.91524 166.474 6.57011 169.411 6.20129C171.925 5.8856 174.426 5.47426 176.933 5.10374C177.621 5.00209 178.308 4.89513 179.103 4.77422C178.594 5.4044 178.055 5.81392 177.457 6.15306C176.139 6.90003 174.707 7.34022 173.249 7.70856C172.5 7.898 171.746 8.07143 170.997 8.29029C176.215 8.43392 181.267 9.61757 186.436 10.5923C185.34 11.2971 184.211 11.7004 183.048 12.0072C179.211 13.0195 175.413 12.7838 171.636 11.6537C169.856 11.1213 168.054 10.6618 166.261 10.1728C166.119 10.134 165.97 10.1233 165.899 10.1117C170.57 12.084 175.302 14.082 180.034 16.08C180.02 16.1272 180.007 16.1744 179.993 16.2216C178.567 16.8254 177.077 17.1675 175.527 17.2287C173.22 17.3198 171.051 16.688 168.942 15.8533C166.447 14.8661 163.979 13.8094 161.498 12.787C161.347 12.7247 161.18 12.6987 160.997 12.7294C165.037 14.8819 169.077 17.0344 173.117 19.1869C173.121 19.2222 173.125 19.2576 173.129 19.2929C172.371 19.488 171.618 19.7119 170.852 19.8731C168.137 20.4442 165.628 19.7997 163.258 18.4914C160.981 17.2341 158.727 15.9343 156.461 14.6561C156.065 14.4329 155.663 14.2208 155.26 14.0104C155.149 13.9524 155.026 13.9188 154.908 13.8741C154.888 13.9101 154.868 13.9461 154.847 13.9821C158.101 16.3903 161.354 18.7984 164.679 21.2595C161.377 21.7573 158.42 21.2338 155.798 19.2354C153.969 17.8412 152.131 16.4582 150.258 15.0415C150.171 15.0091 150.124 15.0055 150.024 14.9977C150.099 15.0646 150.134 15.0957 150.169 15.1267C151.118 16.1426 152.034 17.1937 153.027 18.1645C154.009 19.1238 155.07 20.002 156.17 20.9811C155.385 21.0073 154.619 21.0741 153.855 21.0489C152.573 21.0067 151.425 20.521 150.458 19.7091C149.193 18.6482 147.994 17.5099 146.766 16.405C146.644 16.2944 146.52 16.1849 146.361 16.044C146.302 16.0115 146.279 16.01 146.255 16.0086C146.263 16.0433 146.271 16.078 146.279 16.1128C147.38 18.2085 148.668 20.1851 150.154 22.1668C149.468 22.353 148.844 22.5535 148.205 22.6878C147.513 22.8331 146.926 22.5749 146.464 22.057C145.604 21.0907 144.757 20.1125 143.904 19.1389C143.764 18.9793 143.626 18.8183 143.487 18.658C143.444 18.6855 143.401 18.713 143.358 18.7405C144.133 20.2596 144.908 21.7788 145.698 23.3281C145.109 23.458 144.589 23.8917 143.897 23.5456C143.793 23.5257 143.744 23.5257 143.599 23.5257C143.732 23.5917 143.776 23.6139 143.82 23.636C143.865 23.7337 143.91 23.8313 143.967 23.9574C143.441 24.2184 142.897 24.2598 142.358 24.1558C142.159 24.1172 141.933 23.9269 141.826 23.7433C141.348 22.9256 140.894 22.0926 140.461 21.2506C140.175 20.6959 139.937 20.1164 139.647 19.5567C139.554 20.4223 139.838 21.224 140.082 22.0231C140.329 22.8348 140.646 23.6255 140.962 24.5103C140.446 24.4867 139.947 24.4861 139.455 24.4247C139.343 24.4106 139.221 24.201 139.164 24.0575C138.893 23.3821 138.644 22.6985 138.387 22.0176C138.346 21.9085 138.307 21.7983 138.268 21.6887C138.232 21.6956 138.197 21.7025 138.161 21.7095C138.264 22.669 138.366 23.6286 138.478 24.6742C138.103 24.7311 137.747 24.7852 137.346 24.8168C137.279 24.793 137.256 24.7918 137.233 24.7907C137.24 24.8223 137.246 24.8539 137.253 24.8855C137.394 25.1733 137.162 25.2432 136.986 25.2599C136.444 25.3112 135.899 25.3247 135.266 25.3576C135.021 24.3677 134.775 23.3769 134.512 22.313C134.252 23.2826 134.005 24.195 133.765 25.1094C133.685 25.4157 133.624 25.727 133.556 26.0365C133.382 26.8353 133.436 27.5963 133.728 28.3825C135.176 32.2901 136.582 36.2134 138.013 40.1274C138.111 40.3952 138.083 40.563 137.869 40.7582C137.28 41.2956 136.714 41.858 136.108 42.4404C135.02 39.5616 133.956 36.747 132.893 33.9323C132.853 33.9444 132.813 33.9565 132.774 33.9686C133.412 37.2427 134.035 40.5199 134.703 43.7879C134.816 44.3396 134.798 44.756 134.352 45.134C134.103 45.3448 133.908 45.6184 133.654 45.9023C133.398 44.8672 133.151 43.8737 132.905 42.8801C132.87 42.8859 132.836 42.8917 132.802 42.8974C132.821 43.1498 132.854 43.4021 132.857 43.6546C132.866 44.4254 132.905 45.1995 132.846 45.9656C132.817 46.3416 132.672 46.7576 132.451 47.0611C131.656 48.1509 130.806 49.2004 129.912 50.2457C130.21 45.5352 129.781 40.8771 129.332 36.218C128.97 40.881 128.458 45.5364 128.787 50.2745C128.075 49.3913 127.376 48.4979 126.648 47.6281C126.025 46.8832 125.734 46.0527 125.789 45.0765C125.83 44.3514 125.797 43.6223 125.76 42.8806C125.529 43.86 125.299 44.8393 125.053 45.8819C124.659 45.4388 124.274 45.0393 123.937 44.6031C123.854 44.4961 123.897 44.264 123.93 44.0988C124.292 42.2752 124.678 40.4561 125.029 38.6306C125.307 37.1839 125.548 35.7299 125.804 34.2789C125.816 34.2126 125.812 34.1435 125.734 34.0497C124.701 36.8132 123.669 39.5766 122.606 42.4209C121.938 41.7849 121.291 41.1805 120.665 40.5559C120.605 40.4962 120.64 40.3002 120.682 40.1857C121.57 37.7279 122.465 35.2725 123.36 32.8171C123.897 31.3437 124.413 29.8622 124.982 28.4012C125.364 27.4179 125.259 26.4525 125.018 25.4779C124.761 24.4357 124.483 23.3985 124.136 22.3494C124.09 22.5608 124.048 22.773 123.998 22.9832C123.844 23.6255 123.684 24.2665 123.532 24.9091C123.455 25.2331 123.3 25.3974 122.926 25.3459C122.589 25.2994 122.236 25.3681 121.899 25.3222C121.649 25.2881 121.28 25.2819 121.39 24.8846C120.997 24.8206 120.599 24.7556 120.177 24.6868C120.307 23.6384 120.432 22.6452 120.556 21.6521C120.522 21.6442 120.489 21.6362 120.456 21.6283C120.332 21.9955 120.208 22.363 120.082 22.7295C120.011 22.9376 119.937 23.1451 119.86 23.3511C119.434 24.4837 118.988 24.7154 117.755 24.4338C118.36 22.8324 119.03 21.249 119.041 19.4758C118.952 19.6795 118.871 19.8867 118.775 20.0864C118.261 21.1517 117.793 22.2428 117.214 23.2715C116.627 24.3135 116.631 24.2659 115.256 24.1327C115.057 24.1133 114.864 24.0271 114.63 23.961C114.708 23.7922 114.768 23.6626 114.87 23.4438C114.167 23.8567 113.587 23.5589 112.996 23.3199C113.792 21.7707 114.579 20.2375 115.367 18.7042C115.326 18.6789 115.285 18.6535 115.245 18.6282C114.743 19.22 114.246 19.8154 113.739 20.4026C113.298 20.9139 112.841 21.412 112.4 21.9232C111.713 22.7191 110.852 22.8724 109.888 22.5913C109.454 22.4648 109.036 22.2843 108.567 22.1125C110.007 20.2266 111.29 18.2886 112.368 16.2211C112.338 16.1892 112.309 16.1573 112.279 16.1254C112.136 16.2423 111.983 16.3506 111.849 16.4776C110.927 17.3481 110.031 18.2486 109.082 19.0889C108.019 20.0306 106.84 20.827 105.387 20.9758C104.437 21.073 103.469 20.9941 102.483 20.9394C104.78 19.2728 106.681 17.2277 108.536 15.1358C108.503 15.0971 108.471 15.0585 108.438 15.0198C107.999 15.3326 107.549 15.6313 107.123 15.9607C105.804 16.9803 104.486 18.003 103.181 19.0401C100.499 21.1702 97.4497 21.7874 94.0205 21.2604C97.3747 18.7798 100.673 16.3408 103.97 13.9019C103.954 13.8715 103.937 13.8412 103.921 13.8108C103.793 13.8647 103.658 13.9065 103.539 13.9744C101.611 15.0684 99.701 16.1962 97.7523 17.2521C96.3144 18.0312 94.8635 18.8088 93.3522 19.425C90.7761 20.4753 88.1736 20.2182 85.4974 19.2483C89.5846 17.0642 93.5978 14.9197 97.6109 12.7752C97.5923 12.7353 97.5738 12.6954 97.5552 12.6555C97.408 12.7116 97.2593 12.764 97.1137 12.8242C94.5448 13.887 91.992 14.9908 89.4027 16.0012C87.4203 16.7747 85.374 17.3227 83.206 17.2333C81.6484 17.1692 80.1559 16.8481 78.665 16.2133C83.3378 13.9888 88.0679 12.0381 92.8129 10.0931C92.5819 10.1429 92.348 10.1824 92.1202 10.2442C89.8089 10.8711 87.5095 11.5459 85.1855 12.1211C81.4912 13.0355 77.8353 12.7772 74.2379 11.5771C73.861 11.4513 73.4999 11.2741 73.1398 11.1032C72.8459 10.9637 72.5644 10.798 72.207 10.6061C77.3837 9.62205 82.4497 8.44753 87.681 8.29426C84.8501 7.51989 81.8594 7.13332 79.6974 4.80824C80.509 4.931 81.3191 5.06475 82.1324 5.17469C86.6083 5.77975 91.0775 6.44471 95.5643 6.95438C98.0636 7.23828 100.592 7.2757 103.109 7.39351C104.249 7.4469 105.397 7.37033 106.535 7.45208C108.007 7.55789 109.359 8.15122 110.727 8.65831C113.196 9.57321 115.689 10.405 118.32 10.7185C120.174 10.9395 122.031 10.9396 123.887 10.7129C123.953 10.7048 124.021 10.7038 124.133 10.6964C124.019 10.9942 123.917 11.26 123.79 11.5678C123.762 11.6484 123.759 11.6868 123.755 11.7253C123.795 11.7019 123.834 11.6786 123.873 11.6553ZM154.781 13.9339C154.812 13.9247 154.844 13.9155 154.875 13.9062C154.849 13.8753 154.823 13.8443 154.76 13.7704C154.691 13.7704 154.623 13.7704 154.471 13.7704C154.612 13.8359 154.672 13.8637 154.781 13.9339ZM143.441 18.6149C143.394 18.6105 143.347 18.6061 143.301 18.6017C143.336 18.6254 143.371 18.649 143.441 18.6149ZM125.874 42.753C125.859 42.7299 125.845 42.7067 125.831 42.6836C125.834 42.7189 125.837 42.7541 125.874 42.753ZM108.515 15.0371C108.532 15.0481 108.549 15.0591 108.565 15.0702C108.562 15.0453 108.56 15.0205 108.515 15.0371Z" fill="white"/>
<path d="M129.525 3.62916C129.474 3.75597 129.43 3.85192 129.385 3.94786C129.352 3.9491 129.319 3.95034 129.286 3.95158C129.216 3.52134 129.146 3.0911 129.071 2.62894C128.852 2.95072 128.632 3.27287 128.413 3.59502C128.368 3.579 128.322 3.56299 128.277 3.54697C128.589 2.36577 128.901 1.18457 129.213 0.00336563C129.289 0.00224292 129.365 0.00112147 129.441 0C129.761 1.18075 130.082 2.3615 130.402 3.54225C130.353 3.56293 130.303 3.58361 130.254 3.60429C130.092 3.35189 129.93 3.09948 129.735 2.79532C129.66 3.09265 129.596 3.34548 129.525 3.62916Z" fill="white"/>
</svg>
