<svg width="384" height="424" viewBox="0 0 384 424" fill="none" xmlns="http://www.w3.org/2000/svg">
<mask id="mask0_2079_411" style="mask-type:luminance" maskUnits="userSpaceOnUse" x="0" y="0" width="383" height="422">
<path d="M382.035 0H0V421.717H382.035V0Z" fill="white"/>
</mask>
<g mask="url(#mask0_2079_411)">
<path d="M104.353 79.7457C104.546 80.9083 106.499 82.1919 107.561 83.1365C120.078 94.0355 115.568 115.058 123.599 128.718C126.687 133.683 123.334 135.742 118.124 136.759C113.638 137.583 107.657 139.472 103.75 136.977C91.4255 125.303 102.375 89.4821 82.0193 84.5655C79.4145 84.0811 76.5444 84.9288 75.1456 87.1812C74.1085 88.7313 73.6502 90.8384 73.3367 92.7276C71.6002 103.966 69.6707 115.155 68.1754 126.417C67.9342 128.912 67.7895 131.576 68.4648 133.95C69.0195 137.752 74.2773 140.126 73.4573 143.541C72.8061 144.922 70.6837 145.745 69.0677 146.181C60.1198 148.385 50.9549 150.347 41.8863 152.309C32.7455 153.883 35.1091 150.153 40.4875 144.268C46.2759 136.711 46.6135 126.708 48.1571 117.65C51.7749 95.9246 54.6208 74.1509 58.2386 52.2319C58.8898 47.0488 60.5781 41.6236 58.6486 36.6101C57.4668 33.5099 53.8732 30.9426 54.042 29.0292C54.4279 26.3166 59.1069 26.147 62.8934 25.4447C69.0195 24.5243 75.1456 23.5071 81.151 21.9813C84.5758 21.0609 88.676 20.0437 89.3995 21.2062C90.0748 22.9501 87.6389 25.154 86.6983 26.7525C81.4887 33.8005 80.934 43.2947 79.3904 51.8202C78.8357 58.626 75.8209 66.4974 77.3403 73.1095C78.1845 75.265 81.4163 75.7252 83.8282 75.3619C93.2343 74.2478 101.724 69.1858 107.657 62.4527C119.789 49.3013 124.251 23.3618 106.596 13.1652C89.7854 6.21411 68.6336 12.0995 53.3667 20.189C36.4838 28.9566 23.5564 44.094 20.3246 63.034C18.2263 72.8188 18.6845 85.9218 28.2112 91.565C31.3466 93.3331 35.8085 93.1635 36.8697 95.2949C38.0274 97.9349 35.6638 100.551 33.8549 102.391C28.5248 107.599 18.5639 109.464 11.9072 105.007C-3.67323 94.2534 -1.62316 71.5594 4.71996 55.9375C19.0221 19.6319 59.2033 1.80609 96.1285 -0.0104039C109.538 -0.252603 125.384 2.82332 133.994 14.0371C143.521 27.5034 141.061 47.1457 130.787 59.9096C124.926 67.442 117.208 72.6493 108.453 76.5729C107.102 77.2995 104.546 77.9777 104.353 79.552V79.7457Z" fill="white"/>
<path d="M120.749 186.731C121.81 186.877 123.571 185.206 124.608 184.309C132.519 177.116 139.875 169.584 146.17 161.397C148.413 158.2 150.897 154.592 151.283 150.644C151.5 148.173 149.981 145.897 149.571 144.153C149.354 143.305 149.474 142.579 150.101 141.973C151.548 140.641 154.25 140.157 156.276 139.745C167.249 137.88 178.175 135.458 189.077 134.102C197.132 134.465 186.954 139.236 184.349 140.108C167.057 147.616 155.456 164.304 142.287 177.383C140.647 179.732 132.471 185.714 137.367 187.749C139.103 188.451 142.046 188.766 144.216 190.001C148.582 192.205 150.921 196.831 152.513 201.288C155.866 211 158.47 220.954 161.509 230.787C162.619 234.178 163.776 237.86 166.502 240.282C168.407 242.074 171.446 242.703 173.351 243.842C174.413 244.471 175.04 245.247 175.04 246.191C172.7 253.336 160.496 254.547 154.418 251.205C139.73 243.091 140.55 221.971 135.124 207.875C134.135 204.945 133.001 201.724 130.758 199.544C126.538 195.402 118.554 197.412 117.349 203.395C115.612 213.131 113.731 223.255 114.43 233.088C114.864 236.794 119.206 239.143 118.844 242.631C118.048 244.932 114.768 245.682 112.549 246.312C105.024 248.08 97.4992 249.776 89.9983 251.253C75.5515 253.07 88.2136 245.101 90.4807 239.555C95.2079 226.622 95.5214 212.405 98.078 198.938C99.4769 189.202 100.852 179.441 102.419 169.85C102.878 166.314 104.276 160.889 100.635 158.83C94.8944 156.675 88.1895 160.332 82.9075 162.705C65.3011 171.279 50.4201 192.181 57.9692 212.065C61.9728 222.141 76.8538 221.729 79.4827 211.121C80.4234 207.706 77.288 202.353 78.5662 200.537C80.1581 198.599 84.0893 201.045 85.5847 204.024C87.2006 207.076 87.1041 210.733 86.4047 214.051C83.4623 229.092 68.0989 237.545 53.9655 233.524C43.3776 230.763 37.6615 218.411 37.9268 208.142C39.0363 178.618 65.1564 156.868 92.9649 151.806C103.408 149.336 113.9 147.205 124.415 145.049C135.027 142.845 135.172 145.461 128.057 152.557C123.04 158.636 122.727 167.549 121.352 175.275C120.918 178.4 120.17 181.718 119.977 184.794C119.977 185.811 120.146 186.465 120.58 186.635L120.725 186.683L120.749 186.731Z" fill="white"/>
<path d="M49.1797 347.528C49.2279 312.675 63.4819 279.106 93.0027 260.893C104.459 254.136 119.436 250.624 131.882 256.703C158.388 270.339 142.904 322.993 113.913 321.031C99.9247 320.425 94.8599 303.568 102.216 293.033C104.748 289.376 109.09 285.718 113.72 286.445C118.279 287.922 113.407 294.68 115.698 297.877C119.268 304.901 129.011 301.34 131.833 295.382C135.885 288.237 136.416 279.494 133.112 272.107C125.008 254.547 102.385 265.156 94.1845 277.241C82.6801 292.258 76.6023 310.35 74.504 328.902C72.9845 341.884 71.6821 355.714 77.4705 367.872C86.5873 388.823 110.826 385.311 122.21 368.405C126.865 361.43 129.446 353.34 131.037 345.372C131.472 342.369 133.811 338.154 136.054 340.601C138.08 343.047 137.501 346.68 137.188 349.659C128.36 410.378 49.9274 415.876 49.1797 347.939V347.528Z" fill="white"/>
<path d="M256.852 355.095C217.926 356.475 184.425 380.986 154.036 403.026C136.719 415.984 111.588 429.595 91.063 416.153C87.204 413.223 83.6104 407.652 89.5435 406.974C96.369 406.756 103.267 406.586 109.634 404.625C128.663 399.054 145.836 388.64 163.466 379.775C193.421 364.977 223.449 348.362 257.431 345.964C275.761 344.826 299.107 344.075 311.142 360.641C322.575 378.298 304.51 402.663 284.492 396.366C279.379 395.009 277.522 390.722 282.514 388.688C298.722 384.425 291.993 365.025 280.295 359.866C273.373 356.379 264.98 355.555 257.31 355.143H256.876L256.852 355.095Z" fill="white"/>
<path d="M320.272 280.834C321.599 282.506 324.807 283.305 326.664 284.685C334.092 289.021 336.962 298.442 334.985 306.386C331.27 322.468 314.605 328.475 299.531 329.589C292.03 330.437 284.553 331.284 277.077 332.229C274.11 332.423 269.431 333.803 267.381 331.551C266.802 328.426 271.529 326.416 272.663 323.437C274.375 320.289 274.834 316.631 275.292 313.095C277.173 296.456 279.006 279.599 280.381 263.178C280.55 259.811 281.056 256.3 280.14 253.054C279.344 249.881 275.461 247.362 276.208 245.498C276.667 244.48 277.559 244.117 278.934 243.681C285.88 242.276 293.236 241.866 300.278 240.994C314.074 238.741 333.996 241.502 334.358 259.109C334.671 266.981 329.823 275.046 322.757 278.485C321.84 279.066 320.2 279.648 320.224 280.641L320.272 280.81V280.834ZM293.791 321.139C300.495 321.768 309.443 317.891 313.061 311.787C317.306 305.006 317.547 290.861 307.466 288.173C304.499 287.374 299.651 286.526 297.264 288.173C295.816 289.65 296.178 292.048 295.816 294.18C295.31 299.169 294.779 304.134 294.273 309.099C293.959 312.708 293.381 316.413 293.236 319.901C293.26 320.361 293.381 320.725 293.622 320.967L293.815 321.139H293.791ZM298.277 279.091C299.097 279.575 301.123 278.558 302.763 278.049C305.15 277.201 307.417 276.329 309.443 274.828C317.017 269.839 319.477 251.94 308.792 249.518C306.38 249.227 302.787 248.695 300.978 250.269C299.772 251.649 299.892 253.684 299.651 255.525C299.29 259.642 298.759 263.88 298.373 267.974C298.132 271.243 297.722 274.561 297.746 278.098C297.794 278.461 297.915 278.751 298.084 278.945L298.301 279.115L298.277 279.091Z" fill="white"/>
<path d="M244.654 70.1226C244.75 70.5828 245.208 71.0187 245.932 71.5031C248.802 73.1501 252.203 74.797 254.422 77.3886C261.85 86.1804 258.353 101.39 249.887 108.656C236.67 120.5 216.724 118.659 200.323 121.735C197.67 122.195 190.893 122.995 193.209 118.635C194.583 116.383 197.067 113.888 197.96 111.054C202.301 91.1697 203.7 70.6312 205.967 50.0927C206.04 48.1551 206.015 46.3629 205.364 44.619C204.375 41.3736 199.503 39.6539 200.951 37.3288C201.819 36.2874 204.158 35.7545 205.678 35.4639C218.123 33.4536 230.713 29.8449 243.472 31.1043C263.201 33.0419 262.55 58.3517 248.151 66.8287C247.017 67.6764 244.823 68.5725 244.605 69.953V70.1468L244.654 70.1226ZM217.882 110.764C226.202 111.926 235.705 105.823 238.02 97.37C240.794 89.0868 240.046 77.1706 228.638 76.7104C221.138 76.1049 220.824 80.1012 220.197 86.3499C219.088 93.8339 218.099 101.173 217.279 108.681C217.255 109.286 217.206 110.207 217.665 110.594L217.882 110.764ZM223.911 67.7733C231.798 69.1538 240.263 62.2753 242.001 54.6945C243.52 49.6568 242.58 42.9963 237.176 40.8407C234.282 39.8719 229.531 39.9446 227.143 41.8337C225.792 43.2869 225.985 46.0722 225.575 48.3004C224.731 54.1132 223.984 60.2893 223.405 66.0536C223.405 66.538 223.381 67.2162 223.742 67.5795L223.935 67.749L223.911 67.7733Z" fill="white"/>
<path d="M315.272 228.192C300.705 228.579 282.881 219.158 284.111 202.422C284.449 191.862 293.734 181.883 304.298 183.506C307.94 183.724 313.849 187.502 312.137 191.256C311.606 192.322 310.28 193.097 308.76 193.799C303.575 195.592 300.367 200.678 300.946 206.127C301.91 219.23 321.422 221.87 328.513 212.497C342.164 192.177 315.344 178.759 303.189 166.843C291.95 156.355 291.395 138.723 304.756 130.028C314.187 123.489 326.463 124.337 337.075 126.904C340.741 127.655 343.08 124.434 346.192 123.586C349.954 123.755 346.095 140.952 346.216 144.56C346.023 149.09 343.973 155.435 340.355 149.913C338.136 146.038 336.93 141.194 333.602 137.973C329.405 133.565 321.615 132.378 316.864 135.987C305.528 145.868 321.422 157.009 328.827 163.452C335.58 169.337 342.936 174.884 346.867 183.191C357.334 205.619 339.487 229.572 315.682 228.216H315.248L315.272 228.192Z" fill="white"/>
<path d="M284.47 168.09C284.349 196.5 265.73 219.484 237.922 223.36C229.915 224.789 221.787 225.903 213.731 226.75C211.295 226.968 207.919 226.387 209.921 223.505C211.633 221.035 214.021 218.831 215.034 215.9C216.915 211.008 217.036 205.51 217.759 200.351C219.568 186.473 221.039 172.28 222.438 158.087C222.679 154.866 223.21 151.354 221.666 148.447C220.316 145.807 216.288 143.894 217.928 141.278C220.533 138.881 225.236 139.099 228.612 138.324C235.148 137.403 241.588 135.805 248.172 135.659C267.563 134.376 284.88 147.067 284.446 167.63V168.066L284.47 168.09ZM266.116 168.041C265.947 164.215 265.368 160.194 263.994 156.101C261.461 148.617 252.706 141.811 245.109 145.202C243.396 146.389 242.866 148.98 242.625 151.087C241.588 159.952 240.479 168.768 239.61 177.608C238.718 187.442 237.536 197.493 236.523 207.617C236.306 210.087 236.041 213.817 239.176 214.083C259.098 210.668 265.802 186.279 266.164 168.502V168.041H266.116Z" fill="white"/>
<path d="M286.401 100.856C288.981 102.407 292.864 101.123 295.735 100.517C304.586 98.3618 310.037 90.4661 315.705 83.8783C316.597 83.0548 318.044 81.1656 318.84 82.4977C319.539 85.3073 317.465 92.2341 316.91 95.9398C315.753 102.867 314.692 108.51 306.95 108.704C291.9 109.987 276.753 111.78 261.607 113.281C252.539 113.063 263.368 106.306 264.019 102.503C268.601 82.6188 269.325 61.7897 271.737 41.445C271.954 38.248 272.388 34.7118 270.724 31.8539C269.277 29.1413 265.249 27.5912 266.165 25.363C267.83 23.2801 271.664 23.3043 274.221 22.7957C286.377 21.0519 298.991 19.6956 311.194 17.5642C315.463 16.8376 321.71 14.9484 321.565 21.4636C321.372 24.0794 322.868 42.6075 316.91 36.7221C315.222 34.6876 313.968 31.8781 311.87 30.1101C308.3 26.8162 302.608 26.8646 297.978 27.9787C294.046 28.8022 292.286 32.6047 291.972 36.3346C291.417 41.7114 290.863 46.9187 290.284 52.1502C289.319 59.0044 295.035 59.513 299.762 56.2676C310.809 46.628 307.191 59.7795 307.094 67.4572C306.805 71.9621 305.092 75.7888 302.198 72.4707C300.124 69.9034 297.616 67.5783 293.974 68.1353C290.428 68.426 288.161 71.0902 287.727 74.3841C286.738 81.1656 286.063 88.3105 285.291 95.189C285.147 97.0297 284.809 99.379 286.16 100.711L286.401 100.905V100.856Z" fill="white"/>
<path d="M224.196 339.808C206.975 339.275 201.452 326.269 203.816 310.841C205.046 298.755 206.493 286.572 207.506 274.559C207.699 270.854 208.302 266.93 207.41 263.321C207.048 260.173 201.79 257.581 204.154 254.965C205.191 254.045 206.975 253.512 208.471 253.221C214.886 252.059 221.398 250.993 227.717 250.073C229.936 249.782 235.893 249.225 234.036 253.004C232.975 254.893 230.37 257 229.188 259.446C227.79 262.086 227.259 265.138 226.897 268.117C225.378 282.237 223.786 296.067 222.291 309.993C220.795 318.664 223.521 328.521 234.398 327.141C243.948 326.366 248.7 317.913 249.086 309.581C250.75 294.759 252.679 279.912 254.102 264.992C254.295 262.183 254.392 259.204 253.572 256.54C252.92 254.093 250.677 252.253 249.616 250.654C249.062 249.806 248.893 249.08 249.327 248.426C250.267 247.142 252.293 246.706 253.861 246.367C258.106 245.762 262.592 244.987 266.909 244.914C274.506 245.18 266.909 251.308 266.089 254.868C265.317 257.072 265.028 259.47 264.763 261.82C263.267 277.587 261.579 293.863 259.384 309.799C257.744 329.32 243.466 338.742 224.702 339.808H224.244H224.196Z" fill="white"/>
<path d="M159.213 118.779C160.443 119.481 162.372 119.287 163.916 119.021C172.623 117.616 179.135 113.402 184.175 106.015C185.55 104.101 186.804 101.486 188.42 99.8872C189.192 99.1364 189.795 99.0637 190.133 99.6934C191.146 102.382 189.144 109.188 188.686 112.772C187.817 116.89 187.6 121.491 184.802 123.744C180.244 126.868 174.263 126.481 169.053 127.643C158.465 129.29 147.805 131.155 137.241 132.633C135.722 132.802 133.237 132.778 132.345 131.979C131.766 131.494 131.766 130.768 132.224 129.871C133.31 127.861 136.156 125.294 137.12 122.509C141.751 103.472 142.619 83.2966 145.514 64.1386C145.779 61.7651 146.117 59.3188 145.924 56.9695C145.176 50.5512 139.026 47.1605 147.733 45.3197C160.829 42.8251 173.877 40.6211 186.997 38.1991C190.832 37.3272 193.943 38.1506 193.799 42.6555C193.702 45.1018 194.402 60.9174 189.144 55.6859C187.962 54.3538 186.997 52.4888 185.598 51.2536C181.908 47.5238 171.586 48.4441 167.268 51.8349C165.749 53.2639 165.146 55.4194 164.832 57.4781C164.157 62.6612 163.627 67.8927 163.168 72.9789C163.072 74.3836 163.168 76.1033 163.988 77.1205C166.087 79.7605 171.369 77.29 173.587 75.2071C178.073 70.3631 181.426 67.8927 180.751 77.8955C180.606 79.5183 180.461 81.141 180.292 82.7637C179.665 89.2062 178.701 93.808 173.177 89.5695C168.257 85.985 161.359 87.2929 160.564 94.026C159.526 100.856 158.755 107.904 157.959 114.782C157.862 116.211 157.886 117.786 158.972 118.633L159.213 118.803V118.779Z" fill="white"/>
<path d="M381.499 73.7422C382.102 74.5899 382.077 76.3822 381.933 77.5932C381.185 84.0841 380.124 90.4297 378.846 96.9933C378.411 98.9551 377.881 101.086 376.313 102.394C374.914 103.581 372.816 103.92 370.935 104.114C355.161 104.962 338.833 105.979 322.891 106.221C317.537 105.495 322.601 101.135 324.338 98.9794C326.605 96.2667 327.642 92.9728 328.221 89.5094C330.368 69.2373 333.648 49.1348 335.022 28.7174C335.071 27.1189 335.022 25.5688 334.588 24.043C333.72 20.7491 330.054 17.8669 331.405 16.0262C332.152 14.9121 334.13 14.4034 335.601 14.137C343.584 13.0713 351.688 11.933 359.623 11.1095C360.926 11.0369 362.807 11.1822 363.362 12.2479C363.796 13.0956 362.734 14.5488 361.987 15.348C360.202 17.2372 358.224 19.2232 357.187 21.5725C352.87 34.3606 353.352 48.5293 351.23 61.7776C350.314 70.5694 349.132 79.2644 348.119 87.9835C347.058 93.9416 350.386 96.5089 356.078 95.2495C364.953 93.5299 372.43 86.385 376.361 78.3682C377.398 76.6971 379.111 72.3133 381.33 73.5485L381.474 73.718L381.499 73.7422Z" fill="white"/>
<path d="M170.498 337.236C179.325 340.191 190.154 328.759 193.844 321.421C194.978 319.725 196.449 315.172 198.909 316.359C199.777 317.182 199.777 319.095 199.633 320.452C198.933 325.465 197.751 330.527 196.811 335.541C196.28 340.215 193.024 343.558 188.345 344.187C175.008 346.997 161.55 349.782 148.188 352.277C144.546 352.979 141.242 352.107 144.594 348.256C148.646 344.357 150.865 339.077 151.251 333.434C153.542 314.687 156.027 295.965 157.45 277.171C157.498 275.572 157.45 274.046 157.015 272.569C155.81 268.548 150.286 265.812 155.134 263.632C162.611 261.21 170.642 260.314 178.312 258.667C180.724 258.11 185.813 258.11 183.304 261.791C180.097 265.569 177.444 270.074 177.01 275.185C175.731 285.212 174.284 295.069 173.03 305.121C171.896 314.542 170.787 323.891 169.581 333.167C169.436 334.499 169.436 336.122 170.305 337.018L170.522 337.212L170.498 337.236Z" fill="white"/>
<path d="M212.536 143.047C212.705 144.427 209.859 146.898 208.122 149.271C206.289 151.693 205.349 154.551 204.746 157.506C202.262 172.329 200.597 187.175 198.692 202.289C198.354 209.506 194.254 218.419 200.573 224.062C201.876 225.54 202.937 226.605 202.02 227.913C201.176 228.906 199.44 229.391 198.041 229.681C190.444 230.941 182.412 231.958 174.911 233.024C161.839 234.21 173.464 227.913 175.345 222.9C176.624 220.139 177.082 216.99 177.516 213.963C179.783 196.161 182.34 178.795 184.318 160.921C184.438 159.177 184.462 157.506 183.98 155.883C183.184 152.832 179.421 150.579 180.193 148.908C180.82 147.648 182.557 147.188 183.956 146.777C191.577 145.081 199.271 143.652 207.013 142.272C208.677 142.102 211.523 141.351 212.464 142.877L212.512 143.071L212.536 143.047Z" fill="white"/>
</g>
</svg>
