<svg width="898" height="81" viewBox="0 0 898 81" fill="none" xmlns="http://www.w3.org/2000/svg">
<path d="M0 74.7255V1.72834H37.3119L58.9671 47.1737L80.5206 1.72834H117.731V74.7255H93.839V24.4002L70.0488 74.7255H47.7837L23.8918 24.4002V74.7255H0Z" fill="white"/>
<path d="M121.802 74.7255L159.216 1.72834H189.716L227.028 74.7255H201.51L195.105 61.2038H153.726L147.219 74.7255H121.802ZM161.859 44.022H186.869L174.364 17.8935L161.859 44.022Z" fill="white"/>
<path d="M231.043 74.7255V1.72834H266.423L303.735 51.7487V1.72834H327.627V74.7255H292.247L254.935 24.6035V74.7255H231.043Z" fill="white"/>
<path d="M337.48 74.7255V1.72834H372.86L410.172 51.7487V1.72834H434.064V74.7255H398.684L361.372 24.6035V74.7255H337.48Z" fill="white"/>
<path d="M443.917 74.7255V1.72834H518.541V19.7235H467.809V29.9919H516.508V46.3603H467.809V56.7304H518.541V74.7255H443.917Z" fill="white"/>
<path d="M610.142 80.8256L600.687 72.4889C593.367 75.2339 584.623 76.7589 574.762 76.7589C543.753 76.7589 523.623 61.6104 523.623 38.2269C523.623 15.0468 543.753 0 574.762 0C605.973 0 626.002 15.0468 626.002 38.2269C626.002 48.4954 622.139 57.1371 615.225 63.6438L621.732 69.3372L610.142 80.8256ZM548.531 38.2269C548.531 49.3087 558.8 56.6287 574.762 56.6287C577.405 56.6287 579.845 56.4254 582.183 56.0187L571.305 46.462L582.793 34.9736L597.738 48.1903C599.975 45.3437 601.195 41.9886 601.195 38.2269C601.195 27.2469 590.927 20.0285 574.762 20.0285C558.698 20.0285 548.531 27.2469 548.531 38.2269Z" fill="white"/>
<path d="M671.435 76.7589C640.121 76.7589 627.006 63.5421 627.006 39.0403V1.72834H650.898V38.2269C650.898 47.377 654.964 56.6287 671.435 56.6287C687.905 56.6287 691.87 47.2753 691.87 38.2269V1.72834H715.863V39.0403C715.863 63.5421 702.646 76.7589 671.435 76.7589Z" fill="white"/>
<path d="M722.72 74.7255V1.72834H746.612V74.7255H722.72Z" fill="white"/>
<path d="M756.382 74.7255V1.72834H791.762L829.074 51.7487V1.72834H852.966V74.7255H817.586L780.274 24.6035V74.7255H756.382Z" fill="white"/>
<path d="M861.235 12.9792C862.227 10.7154 863.574 8.75151 865.278 7.08565C866.981 5.42105 868.965 4.11432 871.231 3.16546C873.496 2.21723 875.901 1.74219 878.449 1.74219C880.997 1.74219 883.393 2.2166 885.643 3.16546C887.891 4.11432 889.859 5.42105 891.546 7.08565C893.233 8.75088 894.572 10.7148 895.564 12.9792C896.556 15.2436 897.053 17.6913 897.053 20.3205C897.053 23.0178 896.556 25.5071 895.564 27.7873C894.572 30.0681 893.233 32.0496 891.546 33.7305C889.859 35.4122 887.891 36.7189 885.643 37.6508C883.393 38.582 880.996 39.0488 878.449 39.0488C875.903 39.0488 873.496 38.5826 871.231 37.6508C868.965 36.7183 866.98 35.4122 865.278 33.7305C863.574 32.0496 862.227 30.0681 861.235 27.7873C860.242 25.5071 859.746 23.0178 859.746 20.3205C859.746 17.6913 860.242 15.2436 861.235 12.9792ZM864.286 26.6885C865.063 28.6359 866.137 30.3264 867.51 31.7579C868.882 33.19 870.503 34.3133 872.371 35.1286C874.24 35.9452 876.266 36.3529 878.449 36.3529C880.598 36.3529 882.599 35.9452 884.451 35.1286C886.303 34.3133 887.916 33.19 889.288 31.7579C890.66 30.327 891.735 28.6359 892.513 26.6885C893.289 24.741 893.679 22.6183 893.679 20.3205C893.679 18.0908 893.289 16.0097 892.513 14.078C891.735 12.1475 890.66 10.4747 889.288 9.05899C887.916 7.64389 886.303 6.52931 884.451 5.71276C882.599 4.89747 880.598 4.48923 878.449 4.48923C876.266 4.48923 874.24 4.89747 872.371 5.71276C870.503 6.52931 868.882 7.64452 867.51 9.05899C866.137 10.4747 865.063 12.1475 864.286 14.078C863.508 16.0097 863.12 18.0908 863.12 20.3205C863.12 22.6183 863.508 24.7403 864.286 26.6885ZM879.59 9.48361C882.17 9.48361 884.079 10.0003 885.32 11.0317C886.561 12.0643 887.18 13.6287 887.18 15.7262C887.18 17.6913 886.634 19.1316 885.543 20.0471C884.452 20.9632 883.096 21.5038 881.475 21.6701L887.676 31.3093H884.055L878.151 21.9202H874.58V31.3093H871.206V9.48427H879.59V9.48361ZM878.102 19.1726C878.862 19.1726 879.581 19.1474 880.26 19.0976C880.937 19.0472 881.541 18.9067 882.07 18.6729C882.598 18.4398 883.02 18.082 883.335 17.5993C883.649 17.1167 883.806 16.4432 883.806 15.5762C883.806 14.8448 883.665 14.2613 883.384 13.8285C883.103 13.3969 882.739 13.063 882.293 12.8298C881.846 12.5967 881.333 12.4386 880.755 12.3554C880.176 12.2729 879.606 12.2307 879.043 12.2307H874.578V19.1726H878.101H878.102Z" fill="white"/>
</svg>
