<svg width="619" height="88" viewBox="0 0 619 88" fill="none" xmlns="http://www.w3.org/2000/svg">
<path d="M8 80.0008V7.30078H64.6V24.3008H31.8V37.5008H57.9V54.5008H31.8V80.0008H8Z" fill="white"/>
<path d="M75.5 80.0008V7.30078H99.3V80.0008H75.5Z" fill="white"/>
<path d="M109.398 7.30078H133.398L146.098 55.7008L159.298 7.30078H183.298L158.198 80.0008H134.298L109.398 7.30078Z" fill="white"/>
<path d="M193.398 80.0008V7.30078H252.698V24.3008H217.198V34.7008H247.198V51.7008H217.198V63.0008H254.098V80.0008H193.398Z" fill="white"/>
<path d="M369.602 80.2008H354.202L353.302 73.0008C352.302 74.1008 351.102 75.3008 349.802 76.3008C348.502 77.4008 346.902 78.3008 345.202 79.1008C343.402 79.9008 341.402 80.6008 339.102 81.1008C336.802 81.6008 334.302 81.9008 331.402 81.9008C326.802 81.9008 322.302 81.1008 318.102 79.6008C313.902 78.1008 310.102 75.8008 306.802 72.7008C303.502 69.6008 300.902 65.7008 299.002 61.0008C297.102 56.3008 296.102 50.8008 296.102 44.5008C296.102 38.7008 297.002 33.4008 298.702 28.6008C300.502 23.8008 303.002 19.7008 306.302 16.2008C309.602 12.8008 313.602 10.1008 318.302 8.20078C323.002 6.30078 328.302 5.30078 334.202 5.30078C338.602 5.30078 342.702 5.90078 346.502 7.00078C350.302 8.10078 353.802 9.80078 356.802 12.1008C359.802 14.4008 362.402 17.2008 364.402 20.5008C366.502 23.9008 367.802 27.8008 368.602 32.2008H346.002C345.102 29.2008 343.602 26.9008 341.602 25.3008C339.502 23.8008 336.902 23.0008 333.802 23.0008C331.402 23.0008 329.402 23.5008 327.702 24.5008C326.002 25.5008 324.602 27.0008 323.402 28.8008C322.302 30.7008 321.402 32.9008 320.802 35.5008C320.202 38.1008 319.902 41.0008 319.902 44.2008C319.902 46.8008 320.102 49.2008 320.602 51.6008C321.102 54.0008 321.902 56.1008 323.002 57.9008C324.102 59.7008 325.702 61.2008 327.602 62.2008C329.602 63.3008 332.002 63.8008 335.102 63.8008C336.302 63.8008 337.602 63.6008 338.902 63.2008C340.202 62.8008 341.402 62.2008 342.602 61.5008C343.702 60.8008 344.702 59.9008 345.602 58.9008C346.402 57.9008 347.002 56.7008 347.402 55.5008H337.002V40.0008H369.602V80.2008Z" fill="white"/>
<path d="M383.5 7.30078H407.3V50.8008C407.3 52.6008 407.4 54.3008 407.7 56.0008C407.9 57.6008 408.5 59.0008 409.3 60.2008C410.1 61.4008 411.3 62.4008 412.7 63.1008C414.2 63.8008 416.1 64.2008 418.6 64.2008C420.8 64.2008 422.5 63.9008 424 63.2008C425.4 62.6008 426.6 61.7008 427.4 60.5008C428.3 59.3008 428.9 57.9008 429.2 56.3008C429.5 54.7008 429.7 52.9008 429.7 50.9008V7.30078H453.5V48.4008C453.5 60.0008 450.7 68.5008 445.1 73.9008C439.5 79.3008 430.6 81.9008 418.6 81.9008C412.9 81.9008 407.9 81.3008 403.6 80.2008C399.3 79.1008 395.6 77.2008 392.6 74.5008C389.6 71.8008 387.4 68.4008 385.8 64.1008C384.3 59.8008 383.5 54.6008 383.5 48.3008V7.30078Z" fill="white"/>
<path d="M511.697 80.0008H487.897V53.6008L460.797 7.30078H487.497L499.997 31.9008L512.497 7.30078H538.797L511.697 53.2008V80.0008Z" fill="white"/>
<path d="M584.1 28.4C583.9 27.1 583.5 26.1 582.9 25.3C582.3 24.5 581.6 23.9 580.7 23.4C579 22.5 577 22.1 574.5 22.1C571.9 22.1 570 22.5 568.7 23.2C567.5 23.9 566.9 24.9 566.9 26.3C566.9 27.6 567.5 28.8 568.7 29.6C569.9 30.5 571.5 31.3 573.4 31.9C575.4 32.6 577.6 33.2 580.1 33.8C582.6 34.4 585.1 35 587.8 35.8C590.4 36.5 593 37.4 595.5 38.5C598 39.5 600.2 40.9 602.2 42.5C604.2 44.2 605.7 46.1 606.9 48.5C608.1 50.8 608.7 53.6 608.7 56.9C608.7 61.1 607.9 64.8 606.2 68C604.5 71.1 602.2 73.7 599.2 75.8C596.2 77.9 592.6 79.4 588.4 80.4C584.2 81.4 579.6 82 574.7 82C569.9 82 565.6 81.3 561.7 80C557.8 78.7 554.4 76.9 551.7 74.7C548.9 72.5 546.7 69.9 545.1 67C543.5 64.1 542.7 61 542.5 57.7H565.3C565.8 60.3 567.1 62.2 569.2 63.5C570.1 64.1 571.2 64.6 572.4 64.9C573.6 65.2 574.8 65.4 575.9 65.4C578.9 65.4 581.3 64.9 583.1 64C584.9 63.1 585.8 61.8 585.8 60C585.8 58.2 584.8 56.8 582.7 55.8C580.6 54.8 578.1 53.9 575 53.2C571.9 52.4 568.5 51.6 564.9 50.7C561.3 49.8 557.9 48.5 554.8 46.8C551.7 45.1 549.1 42.9 547.1 40C545 37.2 544 33.4 544 28.8C544 25 544.8 21.6 546.4 18.6C548 15.7 550.2 13.2 553 11.3C555.8 9.4 559.1 7.9 562.9 7C566.7 6 570.9 5.5 575.5 5.5C580.5 5.5 584.9 6.1 588.6 7.3C592.3 8.5 595.4 10.2 597.9 12.2C600.4 14.3 602.4 16.7 603.8 19.5C605.2 22.3 606.1 25.3 606.5 28.4H584.1Z" fill="white"/>
<path d="M608.503 18.5023C607.803 18.5023 607.103 18.4023 606.403 18.1023C605.803 17.8023 605.203 17.4023 604.703 17.0023C604.203 16.5023 603.803 16.0023 603.603 15.3023C603.303 14.7023 603.203 14.0023 603.203 13.2023C603.203 12.5023 603.303 11.8023 603.603 11.1023C603.903 10.5023 604.303 9.90234 604.703 9.40234C605.203 8.90234 605.703 8.50234 606.403 8.30234C607.003 8.00234 607.703 7.90234 608.503 7.90234C609.203 7.90234 609.903 8.00234 610.603 8.30234C611.203 8.60234 611.803 9.00234 612.303 9.40234C612.803 9.90234 613.203 10.4023 613.403 11.1023C613.703 11.7023 613.803 12.4023 613.803 13.2023C613.803 13.9023 613.703 14.6023 613.403 15.3023C613.103 15.9023 612.703 16.5023 612.303 17.0023C611.803 17.5023 611.303 17.9023 610.603 18.1023C609.903 18.4023 609.303 18.5023 608.503 18.5023ZM608.503 17.3023C609.103 17.3023 609.603 17.2023 610.103 17.0023C610.603 16.8023 611.003 16.5023 611.303 16.2023C611.603 15.8023 611.903 15.4023 612.103 14.9023C612.303 14.4023 612.403 13.9023 612.403 13.3023C612.403 12.7023 612.303 12.2023 612.103 11.7023C611.903 11.2023 611.603 10.8023 611.303 10.4023C611.003 10.0023 610.503 9.80234 610.103 9.60234C609.603 9.40234 609.103 9.30234 608.503 9.30234C607.903 9.30234 607.403 9.40234 606.903 9.60234C606.403 9.80234 606.003 10.1023 605.703 10.4023C605.403 10.8023 605.103 11.2023 604.903 11.7023C604.703 12.2023 604.603 12.7023 604.603 13.3023C604.603 13.9023 604.703 14.4023 604.903 14.9023C605.103 15.4023 605.403 15.8023 605.703 16.2023C606.003 16.6023 606.503 16.8023 606.903 17.0023C607.403 17.2023 608.003 17.3023 608.503 17.3023ZM611.203 16.1023H609.803L608.503 13.7023H607.503V16.1023H606.303V10.4023H609.103C609.903 10.4023 610.403 10.5023 610.803 10.8023C611.203 11.0023 611.303 11.5023 611.303 12.2023C611.303 12.7023 611.203 13.1023 610.903 13.3023C610.603 13.5023 610.203 13.7023 609.703 13.7023L611.203 16.1023ZM609.103 12.8023C609.403 12.8023 609.703 12.8023 609.903 12.6023C610.103 12.5023 610.203 12.3023 610.203 11.9023C610.203 11.7023 610.203 11.6023 610.103 11.5023C610.003 11.4023 609.903 11.3023 609.803 11.3023C609.703 11.3023 609.503 11.2023 609.403 11.2023C609.203 11.2023 609.103 11.2023 609.003 11.2023H607.703V12.8023H609.103Z" fill="white"/>
</svg>
