<svg width="1380" height="522" viewBox="0 0 1380 522" fill="none" xmlns="http://www.w3.org/2000/svg">
<path d="M483.421 91.8558C461.383 91.8558 445.26 75.5013 445.26 48.7078C445.26 21.9143 461.383 5.55982 483.421 5.55982C499.659 5.55982 514.39 14.027 518.566 33.9772H508.707C504.995 19.5945 494.556 14.491 483.421 14.491C466.718 14.491 455.467 27.1338 455.467 48.7078C455.467 70.2818 466.718 82.9247 483.421 82.9247C495.136 82.9247 507.199 75.8493 509.286 59.9588H519.03C516.942 81.5328 500.355 91.8558 483.421 91.8558ZM566.141 91.8558C542.131 91.8558 526.589 74.3415 526.589 48.7078C526.589 23.0742 542.131 5.55982 566.141 5.55982C590.151 5.55982 605.693 23.0742 605.693 48.7078C605.693 74.3415 590.151 91.8558 566.141 91.8558ZM566.141 82.9247C583.887 82.9247 595.486 69.7019 595.486 48.7078C595.486 27.7138 583.887 14.491 566.141 14.491C548.395 14.491 536.796 27.7138 536.796 48.7078C536.796 69.7019 548.395 82.9247 566.141 82.9247ZM626.682 44.7642H614.967V33.1653H626.682V44.7642ZM626.682 90H614.967V78.4011H626.682V90ZM649.231 7.41565V81.1848H690.755V90H639.488V7.41565H649.231ZM770.971 90H760.648L751.021 65.9902H713.44L703.929 90H693.722L726.663 7.41565H737.566L770.971 90ZM717.268 56.2471L716.92 57.175H747.541L747.077 56.1311C743.481 47.2 736.986 30.7295 731.999 17.9707C727.243 30.7295 720.864 47.2 717.268 56.2471ZM826.618 47.084C836.825 50.9116 840.884 58.5669 840.884 66.8021C840.884 80.7209 831.721 90 814.091 90H778.018V7.41565H812.351C829.517 7.41565 837.521 17.2747 837.521 28.9897C837.521 37.2249 833.577 43.3723 826.618 47.084ZM811.655 16.2308H787.761V43.4883H811.655C822.674 43.4883 828.01 38.1528 828.01 29.3376C828.01 21.5663 822.674 16.2308 811.655 16.2308ZM787.761 81.1848H813.627C825.226 81.1848 831.141 75.7333 831.141 66.8021C831.141 56.7111 824.53 52.1875 813.511 52.1875H787.761V81.1848ZM891.205 91.8558C866.151 91.8558 847.825 72.7176 847.825 48.7078C847.825 24.5821 866.151 5.44383 891.205 5.44383C916.374 5.44383 934.701 24.5821 934.701 48.7078C934.701 72.7176 916.374 91.8558 891.205 91.8558ZM891.205 84.5485C911.967 84.5485 926.813 68.774 926.813 48.7078C926.813 28.5257 911.967 12.7512 891.205 12.7512C870.559 12.7512 855.712 28.5257 855.712 48.7078C855.712 68.774 870.559 84.5485 891.205 84.5485ZM891.669 74.8054C877.75 74.8054 868.587 64.4824 868.587 48.7078C868.587 32.8173 877.634 22.6102 891.669 22.6102C903.615 22.6102 911.735 29.6856 913.243 40.9365H904.775C903.499 33.5132 897.932 29.9176 891.669 29.9176C882.621 29.9176 877.054 36.8769 877.054 48.7078C877.054 60.4227 882.621 67.3821 891.669 67.3821C897.932 67.3821 903.615 63.7864 904.775 56.2471H913.243C911.619 67.4981 903.383 74.8054 891.669 74.8054ZM68.3262 159.106L69.1381 172.445C69.3701 176.157 70.182 180.1 72.1538 183H62.0628C60.2069 180.332 59.511 176.389 59.395 171.981L59.0471 163.166C58.5831 151.683 54.1755 147.739 44.3164 147.739H17.4069V183H7.66381V100.416H42.5766C58.8151 100.416 70.53 108.187 70.53 122.918C70.53 133.821 64.7305 140.316 56.9592 142.868C64.1506 145.188 67.7462 150.523 68.3262 159.106ZM17.4069 138.924H43.7365C53.3636 138.924 60.4389 133.937 60.4389 123.498C60.4389 113.638 53.3636 109.231 42.5766 109.231H17.4069V138.924ZM140.064 100.416V109.231H92.3921V135.56H135.424V144.376H92.3921V174.185H139.6V183H82.6491V100.416H140.064ZM180.205 184.856C160.487 184.856 146.104 176.389 145.872 155.743H155.963C156.195 171.053 166.75 176.041 180.205 176.041C193.428 176.041 201.083 170.821 201.083 160.614C201.083 152.727 195.632 148.899 181.017 145.651L173.71 144.028C159.675 140.896 148.656 135.212 148.656 120.134C148.656 106.911 159.675 98.5598 176.841 98.5598C201.199 98.5598 208.738 110.971 209.086 124.425H199.111C198.299 113.754 193.312 107.375 176.841 107.375C164.894 107.375 158.747 112.363 158.747 120.134C158.747 128.021 162.575 131.965 178.117 135.444L185.425 137.068C204.447 141.244 211.174 148.667 211.174 160.614C211.174 175.229 200.039 184.856 180.205 184.856ZM279.047 100.416V109.231H231.375V135.56H274.407V144.376H231.375V174.185H278.583V183H221.632V100.416H279.047ZM359.232 183H348.909L339.282 158.99H301.701L292.19 183H281.983L314.924 100.416H325.827L359.232 183ZM305.529 149.247L305.181 150.175H335.802L335.338 149.131C331.742 140.2 325.247 123.729 320.259 110.971C315.504 123.729 309.124 140.2 305.529 149.247ZM426.941 159.106L427.753 172.445C427.985 176.157 428.797 180.1 430.769 183H420.678C418.822 180.332 418.126 176.389 418.01 171.981L417.662 163.166C417.198 151.683 412.791 147.739 402.932 147.739H376.022V183H366.279V100.416H401.192C417.43 100.416 429.145 108.187 429.145 122.918C429.145 133.821 423.346 140.316 415.574 142.868C422.766 145.188 426.361 150.523 426.941 159.106ZM376.022 138.924H402.352C411.979 138.924 419.054 133.937 419.054 123.498C419.054 113.638 411.979 109.231 401.192 109.231H376.022V138.924ZM475.945 184.856C453.907 184.856 437.785 168.501 437.785 141.708C437.785 114.914 453.907 98.5598 475.945 98.5598C492.184 98.5598 506.914 107.027 511.09 126.977H501.231C497.519 112.595 487.08 107.491 475.945 107.491C459.243 107.491 447.992 120.134 447.992 141.708C447.992 163.282 459.243 175.925 475.945 175.925C487.66 175.925 499.723 168.849 501.811 152.959H511.554C509.466 174.533 492.879 184.856 475.945 184.856ZM578.383 136.024V100.416H588.127V183H578.383V144.84H532.336V183H522.593V100.416H532.336V136.024H578.383ZM628.577 183H619.53L649.107 100.416H658.154L628.577 183ZM746.968 100.416V109.231H699.297V135.56H742.329V144.376H699.297V174.185H746.504V183H689.554V100.416H746.968ZM819.484 100.416L791.531 140.316L821.108 183H809.741L797.446 165.138C793.387 159.338 789.559 153.771 785.731 147.971C781.904 153.771 778.076 159.222 773.901 165.138L761.374 183H750.471L780.28 140.664L752.095 100.416H763.462L774.712 116.77C778.54 122.338 782.252 127.789 785.847 133.241C789.559 127.673 793.271 122.222 797.214 116.654L808.581 100.416H819.484ZM864.682 100.416C883.008 100.416 892.056 110.971 892.056 125.817C892.056 140.664 883.008 151.219 864.682 151.219H840.092V183H830.349V100.416H864.682ZM840.092 142.404H864.682C876.281 142.404 881.965 136.256 881.965 125.817C881.965 115.378 876.281 109.231 864.682 109.231H840.092V142.404ZM960.37 100.416V109.231H912.699V135.56H955.731V144.376H912.699V174.185H959.907V183H902.956V100.416H960.37ZM1031.47 159.106L1032.28 172.445C1032.51 176.157 1033.32 180.1 1035.3 183H1025.2C1023.35 180.332 1022.65 176.389 1022.54 171.981L1022.19 163.166C1021.72 151.683 1017.32 147.739 1007.46 147.739H980.548V183H970.805V100.416H1005.72C1021.96 100.416 1033.67 108.187 1033.67 122.918C1033.67 133.821 1027.87 140.316 1020.1 142.868C1027.29 145.188 1030.89 150.523 1031.47 159.106ZM980.548 138.924H1006.88C1016.5 138.924 1023.58 133.937 1023.58 123.498C1023.58 113.638 1016.5 109.231 1005.72 109.231H980.548V138.924ZM1055.53 183H1045.79V100.416H1055.53V183ZM1121.63 145.999L1140.07 100.416H1152.83V183H1143.32V156.554C1143.32 145.535 1143.32 130.457 1143.67 114.45C1141.47 120.598 1139.26 126.165 1136.36 133.241L1115.95 183H1107.6L1087.07 133.241C1084.17 126.165 1081.96 120.598 1079.76 114.45C1080.11 130.457 1080.11 145.535 1080.11 156.554V183H1070.6V100.416H1083.36L1102.49 147.391C1105.86 155.511 1109.45 164.79 1111.89 171.169C1114.44 164.442 1118.27 154.119 1121.63 145.999ZM1225.31 100.416V109.231H1177.64V135.56H1220.67V144.376H1177.64V174.185H1224.85V183H1167.9V100.416H1225.31ZM1291.77 128.253V100.416H1301.4V183H1289.56L1262.19 140.432C1256.51 131.501 1249.55 120.482 1245.02 112.479C1245.37 128.717 1245.37 144.028 1245.37 155.163V183H1235.75V100.416H1247.58L1274.95 142.984C1280.63 151.915 1287.59 162.934 1292.12 170.937C1291.77 154.699 1291.77 139.388 1291.77 128.253ZM1311.29 100.416H1377.52V109.231H1349.45V183H1339.36V109.231H1311.29V100.416ZM97.5219 193.416V202.231H52.6341V228.56H92.8824V237.376H52.6341V276H42.891V193.416H97.5219ZM141.149 277.856C117.14 277.856 101.597 260.341 101.597 234.708C101.597 209.074 117.14 191.56 141.149 191.56C165.159 191.56 180.702 209.074 180.702 234.708C180.702 260.341 165.159 277.856 141.149 277.856ZM141.149 268.925C158.896 268.925 170.495 255.702 170.495 234.708C170.495 213.714 158.896 200.491 141.149 200.491C123.403 200.491 111.804 213.714 111.804 234.708C111.804 255.702 123.403 268.925 141.149 268.925ZM252.957 252.106L253.769 265.445C254.001 269.157 254.813 273.1 256.785 276H246.694C244.838 273.332 244.142 269.389 244.026 264.981L243.678 256.166C243.214 244.683 238.807 240.739 228.948 240.739H202.038V276H192.295V193.416H227.208C243.446 193.416 255.161 201.187 255.161 215.918C255.161 226.821 249.362 233.316 241.591 235.868C248.782 238.188 252.378 243.523 252.957 252.106ZM202.038 231.924H228.368C237.995 231.924 245.07 226.937 245.07 216.498C245.07 206.638 237.995 202.231 227.208 202.231H202.038V231.924ZM318.316 238.999L336.758 193.416H349.517V276H340.006V249.554C340.006 238.535 340.006 223.457 340.354 207.45C338.15 213.598 335.946 219.165 333.046 226.241L312.632 276H304.281L283.751 226.241C280.851 219.165 278.647 213.598 276.443 207.45C276.791 223.457 276.791 238.535 276.791 249.554V276H267.28V193.416H280.039L299.177 240.391C302.541 248.511 306.137 257.79 308.573 264.169C311.124 257.442 314.952 247.119 318.316 238.999ZM389.915 276H380.868L410.446 193.416H419.493L389.915 276ZM485.573 277.856C463.535 277.856 447.413 261.501 447.413 234.708C447.413 207.914 463.535 191.56 485.573 191.56C501.812 191.56 516.542 200.027 520.718 219.977H510.859C507.147 205.595 496.708 200.491 485.573 200.491C468.871 200.491 457.62 213.134 457.62 234.708C457.62 256.282 468.871 268.925 485.573 268.925C497.288 268.925 509.351 261.849 511.439 245.959H521.182C519.094 267.533 502.507 277.856 485.573 277.856ZM563.538 277.74C542.892 277.74 531.061 266.025 531.061 245.379V193.416H540.804V245.263C540.804 261.501 549.155 268.809 563.538 268.809C577.92 268.809 586.272 261.501 586.272 245.263V193.416H596.015V245.379C596.015 266.025 584.184 277.74 563.538 277.74ZM619.667 193.416V267.185H661.192V276H609.924V193.416H619.667ZM647.295 193.416H713.525V202.231H685.455V276H675.364V202.231H647.295V193.416ZM752.473 277.74C731.827 277.74 719.996 266.025 719.996 245.379V193.416H729.739V245.263C729.739 261.501 738.091 268.809 752.473 268.809C766.856 268.809 775.207 261.501 775.207 245.263V193.416H784.95V245.379C784.95 266.025 773.119 277.74 752.473 277.74ZM859.522 252.106L860.334 265.445C860.566 269.157 861.378 273.1 863.35 276H853.259C851.403 273.332 850.707 269.389 850.591 264.981L850.243 256.166C849.779 244.683 845.372 240.739 835.513 240.739H808.603V276H798.86V193.416H833.773C850.011 193.416 861.726 201.187 861.726 215.918C861.726 226.821 855.927 233.316 848.155 235.868C855.347 238.188 858.942 243.523 859.522 252.106ZM808.603 231.924H834.933C844.56 231.924 851.635 226.937 851.635 216.498C851.635 206.638 844.56 202.231 833.773 202.231H808.603V231.924ZM931.26 193.416V202.231H883.588V228.56H926.62V237.376H883.588V267.185H930.796V276H873.845V193.416H931.26ZM967.03 276H957.983L987.56 193.416H996.607L967.03 276ZM1037.75 193.416V267.185H1079.27V276H1028.01V193.416H1037.75ZM1098.92 276H1089.17V193.416H1098.92V276ZM1151.56 242.363V233.548H1186.7V276H1178.7L1176.61 264.865C1170.7 273.1 1161.53 277.856 1149.59 277.856C1125.93 277.856 1110.5 260.341 1110.5 234.708C1110.5 209.074 1125.81 191.56 1149.7 191.56C1169.65 191.56 1182.99 203.275 1185.78 220.441H1175.69C1173.48 208.03 1162.69 200.491 1149.7 200.491C1132.07 200.491 1120.71 213.714 1120.71 234.708C1120.71 255.702 1132.19 268.925 1149.7 268.925C1165.01 268.925 1177.89 258.138 1177.89 242.363H1151.56ZM1256.42 229.024V193.416H1266.17V276H1256.42V237.84H1210.37V276H1200.63V193.416H1210.37V229.024H1256.42ZM1276.06 193.416H1342.29V202.231H1314.22V276H1304.13V202.231H1276.06V193.416ZM147.358 360.185H190.97V369H136.687V364.476C136.687 354.733 139.819 342.786 154.665 334.203L165.104 328.172C175.079 322.372 179.603 317.153 179.603 308.454C179.603 299.754 173.803 293.375 163.248 293.375C152.925 293.375 145.966 298.479 145.966 311.121H136.339C136.107 294.071 146.43 284.56 163.48 284.56C179.139 284.56 189.81 294.419 189.81 308.454C189.81 319.009 184.242 327.708 171.02 335.363L162.204 340.467C152.693 346.034 148.054 351.022 147.358 360.185ZM229.618 315.181C247.48 315.181 257.803 327.36 257.803 343.018C257.803 358.677 247.016 370.856 229.386 370.856C221.963 370.856 215.699 368.652 211.176 365.056C200.852 356.821 198.881 342.902 198.881 328.056C198.881 301.726 208.972 284.56 229.618 284.56C244 284.56 254.208 292.911 256.643 306.83H247.132C245.276 298.015 238.781 293.375 229.618 293.375C215.583 293.375 208.856 304.858 208.624 326.432C213.147 319.705 221.731 315.181 229.618 315.181ZM229.386 362.041C239.941 362.041 247.596 354.269 247.596 343.018C247.596 331.767 239.941 323.996 229.386 323.996C218.831 323.996 210.944 331.535 210.944 343.018C210.944 354.501 218.831 362.041 229.386 362.041ZM276.392 369H264.677V357.401H276.392V369ZM295.516 360.185H339.128V369H284.845V364.476C284.845 354.733 287.977 342.786 302.823 334.203L313.262 328.172C323.237 322.372 327.761 317.153 327.761 308.454C327.761 299.754 321.962 293.375 311.407 293.375C301.083 293.375 294.124 298.479 294.124 311.121H284.497C284.265 294.071 294.588 284.56 311.639 284.56C327.297 284.56 337.968 294.419 337.968 308.454C337.968 319.009 332.401 327.708 319.178 335.363L310.363 340.467C300.852 346.034 296.212 351.022 295.516 360.185ZM376.964 370.972C356.898 370.972 347.039 355.197 347.039 327.708C347.039 300.218 356.898 284.444 376.964 284.444C397.03 284.444 406.889 300.218 406.889 327.708C406.889 355.197 397.03 370.972 376.964 370.972ZM376.964 362.157C389.723 362.157 396.682 350.79 396.682 327.708C396.682 304.626 389.723 293.259 376.964 293.259C364.205 293.259 357.246 304.626 357.246 327.708C357.246 350.79 364.205 362.157 376.964 362.157ZM444.897 315.181C462.991 315.181 472.966 327.36 472.966 343.018C472.966 358.677 462.179 370.856 444.317 370.856C428.31 370.856 417.175 360.881 416.247 346.034H425.99C426.918 356.473 435.269 362.041 444.317 362.041C455.104 362.041 462.759 354.269 462.759 343.018C462.759 331.767 455.104 323.996 444.317 323.996C435.849 323.996 430.398 327.708 427.382 333.971H418.335L425.294 286.416H467.978V295.231H433.182L429.238 321.212C433.53 317.385 439.097 315.181 444.897 315.181ZM513.588 315.181C531.45 315.181 541.773 327.36 541.773 343.018C541.773 358.677 530.986 370.856 513.356 370.856C505.932 370.856 499.669 368.652 495.145 365.056C484.822 356.821 482.85 342.902 482.85 328.056C482.85 301.726 492.941 284.56 513.588 284.56C527.97 284.56 538.177 292.911 540.613 306.83H531.102C529.246 298.015 522.751 293.375 513.588 293.375C499.553 293.375 492.826 304.858 492.594 326.432C497.117 319.705 505.7 315.181 513.588 315.181ZM513.356 362.041C523.911 362.041 531.566 354.269 531.566 343.018C531.566 331.767 523.911 323.996 513.356 323.996C502.801 323.996 494.913 331.535 494.913 343.018C494.913 354.501 502.801 362.041 513.356 362.041ZM562.914 313.905C554.447 313.905 548.067 307.41 548.067 299.638C548.067 291.751 554.447 285.488 562.914 285.488C571.381 285.488 577.76 291.751 577.76 299.638C577.76 307.41 571.381 313.905 562.914 313.905ZM562.914 306.946C567.089 306.946 570.221 303.814 570.221 299.638C570.221 295.463 567.089 292.447 562.914 292.447C558.854 292.447 555.606 295.463 555.606 299.638C555.606 303.814 558.854 306.946 562.914 306.946ZM642.293 370.856C622.575 370.856 608.192 362.389 607.96 341.743H618.051C618.283 357.053 628.838 362.041 642.293 362.041C655.516 362.041 663.171 356.821 663.171 346.614C663.171 338.727 657.72 334.899 643.105 331.651L635.798 330.028C621.763 326.896 610.744 321.212 610.744 306.134C610.744 292.911 621.763 284.56 638.929 284.56C663.287 284.56 670.826 296.971 671.174 310.425H661.199C660.387 299.754 655.4 293.375 638.929 293.375C626.983 293.375 620.835 298.363 620.835 306.134C620.835 314.021 624.663 317.965 640.205 321.444L647.513 323.068C666.535 327.244 673.262 334.667 673.262 346.614C673.262 361.229 662.127 370.856 642.293 370.856ZM681.4 369V357.401H693.115V370.044C693.115 380.135 689.404 384.311 682.56 385.007L681.4 385.123V378.859L682.212 378.743C685.344 378.279 686.504 375.379 686.504 370.856V369H681.4ZM736.592 360.185H780.204V369H725.921V364.476C725.921 354.733 729.053 342.786 743.9 334.203L754.339 328.172C764.314 322.372 768.837 317.153 768.837 308.454C768.837 299.754 763.038 293.375 752.483 293.375C742.16 293.375 735.2 298.479 735.2 311.121H725.573C725.341 294.071 735.664 284.56 752.715 284.56C768.373 284.56 779.044 294.419 779.044 308.454C779.044 319.009 773.477 327.708 760.254 335.363L751.439 340.467C741.928 346.034 737.288 351.022 736.592 360.185ZM832.614 324.692C841.777 328.172 847.925 335.363 847.925 345.57C847.925 361.229 835.746 370.856 818 370.856C800.253 370.856 788.074 361.229 788.074 345.57C788.074 335.363 794.222 328.172 803.385 324.692C796.426 321.676 791.438 315.877 791.438 307.178C791.438 292.447 803.385 284.56 818 284.56C832.614 284.56 844.561 292.447 844.561 307.178C844.561 315.877 839.574 321.676 832.614 324.692ZM818 293.375C808.488 293.375 801.065 298.131 801.065 307.178C801.065 316.225 808.488 320.98 818 320.98C827.511 320.98 834.934 316.225 834.934 307.178C834.934 298.131 827.511 293.375 818 293.375ZM818 362.041C829.946 362.041 837.718 356.125 837.718 345.57C837.718 335.015 829.946 329.1 818 329.1C806.053 329.1 798.281 335.015 798.281 345.57C798.281 356.125 806.053 362.041 818 362.041ZM866.646 369H854.931V357.401H866.646V369ZM901.861 370.972C881.795 370.972 871.935 355.197 871.935 327.708C871.935 300.218 881.795 284.444 901.861 284.444C921.927 284.444 931.786 300.218 931.786 327.708C931.786 355.197 921.927 370.972 901.861 370.972ZM901.861 362.157C914.619 362.157 921.579 350.79 921.579 327.708C921.579 304.626 914.619 293.259 901.861 293.259C889.102 293.259 882.143 304.626 882.143 327.708C882.143 350.79 889.102 362.157 901.861 362.157ZM984.06 325.04C991.599 328.984 997.863 335.479 997.863 345.802C997.863 360.881 986.264 370.856 969.445 370.856C950.539 370.856 940.448 360.069 940.564 344.062H950.191C950.539 355.777 957.382 362.041 969.445 362.041C980.464 362.041 987.656 355.777 987.656 345.802C987.656 335.827 980.464 329.332 968.865 329.332H962.718V321.212H968.285C979.42 321.212 985.452 315.993 985.452 307.178C985.452 298.363 978.956 293.375 968.865 293.375C959.47 293.375 952.047 298.015 951.583 309.15H941.84C941.84 294.419 952.047 284.56 968.865 284.56C984.176 284.56 995.311 292.447 995.311 306.946C995.311 315.413 990.787 321.328 984.06 325.04ZM1048.96 325.04C1056.5 328.984 1062.77 335.479 1062.77 345.802C1062.77 360.881 1051.17 370.856 1034.35 370.856C1015.44 370.856 1005.35 360.069 1005.47 344.062H1015.1C1015.44 355.777 1022.29 362.041 1034.35 362.041C1045.37 362.041 1052.56 355.777 1052.56 345.802C1052.56 335.827 1045.37 329.332 1033.77 329.332H1027.62V321.212H1033.19C1044.32 321.212 1050.36 315.993 1050.36 307.178C1050.36 298.363 1043.86 293.375 1033.77 293.375C1024.37 293.375 1016.95 298.015 1016.49 309.15H1006.74C1006.74 294.419 1016.95 284.56 1033.77 284.56C1049.08 284.56 1060.21 292.447 1060.21 306.946C1060.21 315.413 1055.69 321.328 1048.96 325.04ZM1064.53 295.231V286.416H1117.53V294.071C1097.24 316.805 1088.65 341.395 1087.84 369H1077.75C1078.56 340.351 1087.49 317.501 1106.28 295.231H1064.53ZM1139.35 313.905C1130.88 313.905 1124.5 307.41 1124.5 299.638C1124.5 291.751 1130.88 285.488 1139.35 285.488C1147.82 285.488 1154.2 291.751 1154.2 299.638C1154.2 307.41 1147.82 313.905 1139.35 313.905ZM1139.35 306.946C1143.52 306.946 1146.66 303.814 1146.66 299.638C1146.66 295.463 1143.52 292.447 1139.35 292.447C1135.29 292.447 1132.04 295.463 1132.04 299.638C1132.04 303.814 1135.29 306.946 1139.35 306.946ZM1245.87 286.416V295.231H1198.2V321.56H1241.23V330.376H1198.2V360.185H1245.41V369H1188.45V286.416H1245.87Z" fill="white"/>
<path d="M482.498 497.631V475.98H495.613V478.392H485.096V485.568H495.427V487.981H485.096V495.218H495.798V497.631H482.498ZM508.427 498.064C506.572 498.064 505.015 497.724 503.757 497.043C502.499 496.342 501.54 495.394 500.88 494.198C500.241 493.002 499.921 491.651 499.921 490.146V489.218H502.52V489.96C502.52 491.837 503.045 493.259 504.097 494.229C505.149 495.177 506.592 495.651 508.427 495.651C510.036 495.651 511.242 495.29 512.046 494.569C512.871 493.847 513.283 492.909 513.283 491.754V491.568C513.283 490.434 512.861 489.568 512.015 488.97C511.19 488.372 509.84 487.939 507.963 487.671C505.798 487.362 504.066 486.754 502.767 485.846C501.489 484.918 500.849 483.527 500.849 481.671V481.3C500.849 480.165 501.148 479.176 501.746 478.33C502.365 477.464 503.21 476.784 504.283 476.289C505.355 475.794 506.592 475.547 507.994 475.547C509.623 475.547 511.005 475.845 512.139 476.443C513.294 477.041 514.17 477.835 514.768 478.825C515.387 479.794 515.696 480.867 515.696 482.042V483.341H513.098V482.227C513.098 481.279 512.861 480.495 512.386 479.877C511.912 479.238 511.283 478.763 510.5 478.454C509.716 478.124 508.871 477.959 507.963 477.959C507.18 477.959 506.437 478.093 505.736 478.361C505.056 478.629 504.499 479.021 504.066 479.537C503.654 480.031 503.448 480.65 503.448 481.392V481.578C503.448 482.774 503.932 483.65 504.901 484.207C505.87 484.743 507.324 485.156 509.262 485.444C511.531 485.774 513.201 486.434 514.273 487.424C515.345 488.414 515.882 489.733 515.882 491.383V491.754C515.882 493.631 515.242 495.156 513.964 496.332C512.706 497.487 510.861 498.064 508.427 498.064ZM525.634 497.631V478.392H519.324V475.98H534.542V478.392H528.232V497.631H525.634Z" fill="white"/>
<path d="M827.831 497.631V493.919C827.831 492.6 828.12 491.507 828.697 490.641C829.275 489.775 830.089 489.073 831.141 488.537C832.193 487.981 833.44 487.548 834.883 487.238C836.719 486.826 838.038 486.238 838.843 485.475C839.667 484.692 840.08 483.753 840.08 482.661V482.475C840.08 481.733 839.915 481.021 839.585 480.341C839.255 479.64 838.729 479.073 838.007 478.64C837.306 478.186 836.389 477.959 835.255 477.959C833.688 477.959 832.461 478.444 831.574 479.413C830.687 480.382 830.244 481.671 830.244 483.279V484.64H827.646V483.094C827.646 481.774 827.934 480.547 828.512 479.413C829.089 478.258 829.945 477.33 831.079 476.629C832.213 475.907 833.605 475.547 835.255 475.547C836.925 475.547 838.306 475.876 839.399 476.536C840.492 477.176 841.307 478 841.843 479.011C842.4 480.021 842.678 481.083 842.678 482.197V482.753C842.678 484.382 842.162 485.784 841.131 486.96C840.1 488.135 838.451 488.97 836.183 489.465C834.224 489.898 832.77 490.476 831.821 491.197C830.893 491.898 830.429 492.929 830.429 494.29V495.218H842.492V497.631H827.831ZM854.07 498.064C851.698 498.064 849.832 497.311 848.471 495.806C847.131 494.28 846.461 492.084 846.461 489.218V484.393C846.461 481.609 847.131 479.444 848.471 477.897C849.832 476.33 851.698 475.547 854.07 475.547C856.462 475.547 858.328 476.33 859.668 477.897C861.009 479.444 861.679 481.609 861.679 484.393V489.218C861.679 492.084 861.009 494.28 859.668 495.806C858.328 497.311 856.462 498.064 854.07 498.064ZM854.07 495.713C855.74 495.713 856.988 495.125 857.812 493.95C858.658 492.775 859.081 491.135 859.081 489.032V484.578C859.081 482.599 858.658 480.99 857.812 479.753C856.988 478.516 855.74 477.897 854.07 477.897C852.4 477.897 851.142 478.516 850.296 479.753C849.471 480.99 849.059 482.599 849.059 484.578V489.032C849.059 491.135 849.471 492.775 850.296 493.95C851.142 495.125 852.4 495.713 854.07 495.713ZM854.07 488.785C853.554 488.785 853.09 488.589 852.678 488.197C852.286 487.785 852.09 487.321 852.09 486.805C852.09 486.269 852.286 485.805 852.678 485.413C853.09 485.022 853.554 484.826 854.07 484.826C854.606 484.826 855.07 485.022 855.462 485.413C855.853 485.805 856.049 486.269 856.049 486.805C856.049 487.321 855.853 487.785 855.462 488.197C855.07 488.589 854.606 488.785 854.07 488.785ZM865.709 497.631V493.919C865.709 492.6 865.998 491.507 866.575 490.641C867.153 489.775 867.967 489.073 869.019 488.537C870.07 487.981 871.318 487.548 872.761 487.238C874.596 486.826 875.916 486.238 876.72 485.475C877.545 484.692 877.958 483.753 877.958 482.661V482.475C877.958 481.733 877.793 481.021 877.463 480.341C877.133 479.64 876.607 479.073 875.885 478.64C875.184 478.186 874.267 477.959 873.132 477.959C871.565 477.959 870.338 478.444 869.452 479.413C868.565 480.382 868.122 481.671 868.122 483.279V484.64H865.523V483.094C865.523 481.774 865.812 480.547 866.39 479.413C866.967 478.258 867.823 477.33 868.957 476.629C870.091 475.907 871.483 475.547 873.132 475.547C874.803 475.547 876.184 475.876 877.277 476.536C878.37 477.176 879.184 478 879.721 479.011C880.277 480.021 880.556 481.083 880.556 482.197V482.753C880.556 484.382 880.04 485.784 879.009 486.96C877.978 488.135 876.329 488.97 874.06 489.465C872.101 489.898 870.648 490.476 869.699 491.197C868.771 491.898 868.307 492.929 868.307 494.29V495.218H880.37V497.631H865.709ZM891.948 498.064C890.525 498.064 889.246 497.765 888.112 497.167C886.978 496.548 886.081 495.703 885.421 494.631C884.761 493.558 884.431 492.321 884.431 490.919V483.032C884.431 481.506 884.772 480.186 885.452 479.073C886.133 477.938 887.03 477.072 888.143 476.474C889.277 475.856 890.525 475.547 891.886 475.547C893.267 475.547 894.494 475.825 895.566 476.382C896.659 476.918 897.515 477.691 898.134 478.701C898.773 479.712 899.092 480.908 899.092 482.289H896.494C896.494 480.949 896.082 479.877 895.257 479.073C894.432 478.248 893.288 477.835 891.824 477.835C890.442 477.835 889.298 478.32 888.391 479.289C887.483 480.238 887.03 481.485 887.03 483.032V486.248H887.401C887.896 485.341 888.597 484.63 889.504 484.114C890.432 483.599 891.463 483.341 892.597 483.341C893.937 483.341 895.123 483.63 896.154 484.207C897.185 484.764 897.989 485.578 898.567 486.651C899.165 487.702 899.464 488.97 899.464 490.455V490.826C899.464 492.249 899.134 493.507 898.474 494.6C897.814 495.672 896.917 496.517 895.783 497.136C894.649 497.755 893.37 498.064 891.948 498.064ZM891.948 495.775C893.453 495.775 894.649 495.321 895.535 494.414C896.422 493.486 896.865 492.311 896.865 490.888V490.517C896.865 489.548 896.649 488.702 896.216 487.981C895.804 487.238 895.226 486.661 894.484 486.248C893.742 485.836 892.896 485.63 891.948 485.63C891.02 485.63 890.185 485.846 889.442 486.279C888.7 486.692 888.112 487.259 887.679 487.981C887.246 488.702 887.03 489.506 887.03 490.393V490.981C887.03 492.362 887.473 493.507 888.36 494.414C889.246 495.321 890.442 495.775 891.948 495.775Z" fill="white"/>
<path d="M681.5 520.984C729.004 520.984 767.514 504.755 767.514 484.737C767.514 464.718 729.004 448.49 681.5 448.49M681.5 520.984C633.996 520.984 595.486 504.755 595.486 484.737C595.486 464.718 633.996 448.49 681.5 448.49M681.5 520.984V448.792M681.5 520.984C696.987 520.984 709.542 504.755 709.542 484.737C709.542 464.718 696.987 448.49 681.5 448.49M681.5 520.984C666.013 520.984 653.458 504.755 653.458 484.737C653.458 464.718 666.013 448.49 681.5 448.49M681.5 520.984C712.723 520.984 738.033 504.755 738.033 484.737C738.033 464.718 712.723 448.49 681.5 448.49M681.5 520.984C650.278 520.984 624.967 504.755 624.967 484.737C624.967 464.718 650.278 448.49 681.5 448.49M609.502 465.405C623.022 467.759 646.66 471.688 681.5 471.688C716.341 471.688 740.968 468 754.488 465.647M634.551 454.682C642.28 456.248 661.582 459.364 681.5 459.364C701.418 459.364 720.362 456.248 728.091 454.682M631.491 513.976C639.22 512.41 661.582 509.385 681.5 509.385C701.418 509.385 723.803 512.41 731.532 513.976M606.36 502.135C619.88 499.782 646.66 495.853 681.5 495.853C716.341 495.853 742.176 499.782 755.696 502.135M595.486 483.77H767.514" stroke="white" stroke-width="1.93315"/>
</svg>
